<?xml version="1.0" encoding="UTF-8"?>
<svg xmlns="http://www.w3.org/2000/svg" xmlns:xlink="http://www.w3.org/1999/xlink" width="150px" height="150px" viewBox="0 0 150 150" version="1.1">
<g id="surface1">
<rect x="0" y="0" width="150" height="150" style="fill:rgb(95.294118%,93.725491%,82.352942%);fill-opacity:1;stroke:none;"/>
<path style=" stroke:none;fill-rule:nonzero;fill:rgb(50.980395%,60.784316%,35.294119%);fill-opacity:1;" d="M 56.9375 44.496094 C 56.441406 44.199219 56.273438 43.820312 56.167969 42.726562 C 55.988281 40.84375 56.792969 38.242188 58.175781 36.257812 C 59.800781 33.914062 61.96875 32.605469 63.191406 33.230469 C 63.652344 33.46875 63.800781 34.328125 63.542969 35.296875 C 63.285156 36.261719 62.074219 38.660156 60.679688 40.972656 C 58.738281 44.191406 57.847656 45.03125 56.9375 44.496094 Z M 56.9375 44.496094 "/>
<path style=" stroke:none;fill-rule:nonzero;fill:rgb(50.980395%,60.784316%,35.294119%);fill-opacity:1;" d="M 51.332031 49.527344 C 50.023438 49.402344 48.128906 49.039062 47.402344 48.78125 C 45.800781 48.210938 45.214844 47.167969 46.097656 46.457031 C 46.605469 46.050781 47.464844 45.902344 48.761719 46.003906 C 50.046875 46.097656 50.886719 46.390625 52.917969 47.449219 C 54.28125 48.15625 54.683594 48.433594 54.792969 48.730469 C 54.910156 49.050781 54.882812 49.144531 54.601562 49.363281 C 54.328125 49.574219 54.058594 49.613281 53.046875 49.597656 C 52.375 49.585938 51.605469 49.554688 51.332031 49.527344 Z M 51.332031 49.527344 "/>
<path style=" stroke:none;fill-rule:nonzero;fill:rgb(50.980395%,60.784316%,35.294119%);fill-opacity:1;" d="M 85.34375 53.886719 C 84.941406 53.472656 84.363281 51.773438 84.15625 50.394531 C 83.964844 49.117188 83.972656 47.222656 84.171875 46.660156 C 84.554688 45.558594 85.507812 45.234375 86.164062 45.980469 C 86.652344 46.535156 87.492188 48.484375 87.6875 49.515625 C 87.964844 50.980469 87.617188 53.105469 86.96875 53.894531 C 86.5625 54.386719 85.824219 54.386719 85.34375 53.890625 Z M 85.34375 53.886719 "/>
<path style=" stroke:none;fill-rule:nonzero;fill:rgb(50.980395%,60.784316%,35.294119%);fill-opacity:1;" d="M 90.96875 54.890625 C 90.210938 54.597656 90.25 53.6875 91.050781 52.957031 C 92 52.097656 94.167969 51.484375 95.269531 51.769531 C 96.902344 52.191406 96.984375 53.546875 95.425781 54.277344 C 94.167969 54.863281 91.765625 55.195312 90.96875 54.890625 Z M 90.96875 54.890625 "/>
<path style=" stroke:none;fill-rule:nonzero;fill:rgb(50.980395%,60.784316%,35.294119%);fill-opacity:1;" d="M 100.726562 70.378906 C 100.339844 70.121094 100.328125 69.785156 100.6875 69.113281 C 101.328125 67.914062 102.21875 67.296875 102.894531 67.589844 C 103.507812 67.859375 103.265625 68.816406 102.339844 69.753906 C 101.976562 70.128906 101.28125 70.589844 101.085938 70.589844 C 101.0625 70.589844 100.898438 70.496094 100.726562 70.378906 Z M 100.726562 70.378906 "/>
<path style=" stroke:none;fill-rule:nonzero;fill:rgb(50.980395%,60.784316%,35.294119%);fill-opacity:1;" d="M 90.769531 74.882812 C 90.398438 74.527344 90.921875 72.421875 91.804688 70.707031 C 92.957031 68.480469 94.777344 66.644531 96.898438 65.578125 C 98.214844 64.917969 98.878906 64.964844 98.878906 65.714844 C 98.878906 66.226562 97.9375 67.820312 96.726562 69.359375 C 95.304688 71.167969 91.398438 74.972656 90.96875 74.972656 C 90.910156 74.972656 90.820312 74.933594 90.769531 74.882812 Z M 90.769531 74.882812 "/>
<path style=" stroke:none;fill-rule:nonzero;fill:rgb(50.980395%,60.784316%,35.294119%);fill-opacity:1;" d="M 91.078125 80.546875 C 89.941406 79.945312 90.691406 78.78125 92.570312 78.222656 C 94.78125 77.570312 97.449219 77.535156 98.09375 78.152344 C 98.386719 78.433594 98.40625 78.519531 98.265625 78.898438 C 97.902344 79.894531 95.84375 80.65625 93.269531 80.746094 C 91.785156 80.796875 91.507812 80.773438 91.078125 80.546875 Z M 91.078125 80.546875 "/>
<path style=" stroke:none;fill-rule:nonzero;fill:rgb(50.980395%,60.784316%,35.294119%);fill-opacity:1;" d="M 59.546875 84.050781 C 58.648438 83.117188 58.410156 82.503906 58.40625 81.125 C 58.402344 80.273438 58.457031 79.914062 58.605469 79.796875 C 59.3125 79.238281 60.824219 81.910156 60.863281 83.78125 C 60.878906 84.558594 60.863281 84.59375 60.515625 84.632812 C 60.234375 84.664062 60.011719 84.53125 59.546875 84.050781 Z M 59.546875 84.050781 "/>
<path style=" stroke:none;fill-rule:nonzero;fill:rgb(50.980395%,60.784316%,35.294119%);fill-opacity:1;" d="M 83.582031 87.578125 C 82.953125 87.460938 82.4375 87.132812 82.4375 86.851562 C 82.4375 86.324219 84.128906 85.429688 85.796875 85.074219 C 87.1875 84.777344 90.214844 84.851562 90.886719 85.195312 C 91.484375 85.503906 91.523438 86.082031 90.972656 86.496094 C 89.839844 87.351562 85.644531 87.964844 83.582031 87.578125 Z M 83.582031 87.578125 "/>
<path style=" stroke:none;fill-rule:nonzero;fill:rgb(50.980395%,60.784316%,35.294119%);fill-opacity:1;" d="M 75.476562 89.808594 C 75.324219 89.429688 75.679688 88.167969 76.164062 87.355469 C 76.753906 86.371094 78.109375 85.097656 79.261719 84.453125 C 80.875 83.546875 81.242188 83.890625 80.277344 85.40625 C 79.445312 86.722656 78.597656 87.773438 77.433594 88.949219 C 76.585938 89.800781 76.269531 90.035156 75.960938 90.035156 C 75.722656 90.035156 75.53125 89.945312 75.476562 89.808594 Z M 75.476562 89.808594 "/>
<path style=" stroke:none;fill-rule:nonzero;fill:rgb(50.980395%,60.784316%,35.294119%);fill-opacity:1;" d="M 66.519531 90.484375 C 65.136719 89.570312 64.550781 88.242188 64.5625 86.050781 C 64.574219 83.738281 65.039062 83.5 65.976562 85.316406 C 67.152344 87.59375 67.910156 90.445312 67.421875 90.742188 C 67.152344 90.902344 67.15625 90.90625 66.519531 90.484375 Z M 66.519531 90.484375 "/>
<path style=" stroke:none;fill-rule:nonzero;fill:rgb(50.980395%,60.784316%,35.294119%);fill-opacity:1;" d="M 49.40625 90.171875 C 49.234375 90.050781 49.089844 89.855469 49.089844 89.734375 C 49.089844 89.164062 51.160156 87.820312 52.910156 87.257812 C 53.722656 86.996094 54.003906 86.972656 55.363281 87.050781 C 57.195312 87.160156 57.929688 87.355469 57.929688 87.730469 C 57.929688 87.941406 57.511719 88.152344 55.738281 88.832031 C 52.3125 90.148438 50.058594 90.625 49.40625 90.171875 Z M 49.40625 90.171875 "/>
<path style=" stroke:none;fill-rule:nonzero;fill:rgb(50.980395%,60.784316%,35.294119%);fill-opacity:1;" d="M 64.308594 92.820312 C 64.175781 92.785156 63.921875 92.785156 63.746094 92.816406 C 63.566406 92.847656 63.679688 92.878906 63.988281 92.878906 C 64.300781 92.878906 64.445312 92.855469 64.308594 92.820312 Z M 64.308594 92.820312 "/>
<path style=" stroke:none;fill-rule:nonzero;fill:rgb(50.980395%,60.784316%,35.294119%);fill-opacity:1;" d="M 63.234375 94.648438 C 62.386719 94.503906 61.945312 94.304688 61.988281 94.085938 C 62.089844 93.570312 65.371094 92.980469 65.742188 93.410156 C 65.984375 93.691406 65.800781 94.183594 65.375 94.390625 C 64.953125 94.597656 63.765625 94.742188 63.234375 94.648438 Z M 63.234375 94.648438 "/>
<path style=" stroke:none;fill-rule:nonzero;fill:rgb(50.980395%,60.784316%,35.294119%);fill-opacity:1;" d="M 57.953125 94.335938 C 54.980469 93.710938 52.640625 92.050781 53.769531 91.375 C 54.023438 91.222656 54.324219 91.210938 55.214844 91.304688 C 57.476562 91.550781 58.675781 92.074219 59.792969 93.304688 C 61.042969 94.679688 60.644531 94.902344 57.953125 94.335938 Z M 57.953125 94.335938 "/>
<path style=" stroke:none;fill-rule:nonzero;fill:rgb(50.980395%,60.784316%,35.294119%);fill-opacity:1;" d="M 79.554688 97.808594 C 79.167969 97.597656 79.0625 97.425781 79.0625 96.980469 C 79.054688 95.914062 80.667969 94.597656 81.992188 94.589844 C 82.648438 94.585938 82.964844 95.074219 82.738281 95.730469 C 82.539062 96.304688 81.5 97.335938 80.746094 97.703125 C 80.125 98.007812 79.949219 98.023438 79.554688 97.808594 Z M 79.554688 97.808594 "/>
<path style=" stroke:none;fill-rule:nonzero;fill:rgb(50.980395%,60.784316%,35.294119%);fill-opacity:1;" d="M 57.253906 102.6875 C 57.171875 102.484375 57.070312 101.738281 57.03125 101.03125 C 56.9375 99.421875 57.125 98.691406 57.792969 98.089844 C 58.550781 97.40625 58.746094 97.339844 59.132812 97.636719 C 59.425781 97.867188 59.464844 98.007812 59.464844 98.886719 C 59.460938 100.128906 59.144531 101.136719 58.410156 102.21875 C 57.792969 103.136719 57.488281 103.261719 57.253906 102.6875 Z M 57.253906 102.6875 "/>
<path style=" stroke:none;fill-rule:nonzero;fill:rgb(50.980395%,60.784316%,35.294119%);fill-opacity:1;" d="M 78.625 105.421875 C 78.410156 105.175781 78.417969 104.285156 78.640625 103.628906 C 78.96875 102.667969 79.796875 101.449219 80.269531 101.234375 C 80.839844 100.976562 80.960938 100.980469 81.238281 101.242188 C 81.53125 101.523438 81.511719 102.191406 81.191406 102.855469 C 80.84375 103.578125 79.75 104.949219 79.222656 105.320312 C 78.855469 105.578125 78.773438 105.59375 78.625 105.421875 Z M 78.625 105.421875 "/>
<path style=" stroke:none;fill-rule:nonzero;fill:rgb(50.980395%,60.784316%,35.294119%);fill-opacity:1;" d="M 69.292969 109.691406 C 68.476562 109.273438 67.152344 108.175781 66.421875 107.316406 C 65.269531 105.960938 64.609375 104.496094 64.351562 102.71875 C 64.195312 101.664062 64.261719 101.222656 64.589844 101.105469 C 64.984375 100.957031 66.09375 101.609375 67.113281 102.582031 C 68.21875 103.640625 69.089844 104.941406 69.652344 106.367188 C 70.132812 107.59375 70.59375 109.464844 70.484375 109.742188 C 70.367188 110.027344 69.90625 110.007812 69.292969 109.691406 Z M 69.292969 109.691406 "/>
<path style=" stroke:none;fill-rule:nonzero;fill:rgb(50.980395%,60.784316%,35.294119%);fill-opacity:1;" d="M 78.804688 117.46875 C 77.363281 116.472656 80.914062 113.347656 86.601562 110.609375 C 89 109.457031 90.234375 109.171875 90.699219 109.664062 C 91.023438 110.007812 90.992188 110.804688 90.632812 111.488281 C 89.542969 113.535156 86.699219 115.347656 82.09375 116.9375 C 79.957031 117.671875 79.261719 117.785156 78.804688 117.46875 Z M 78.804688 117.46875 "/>
<path style=" stroke:none;fill-rule:nonzero;fill:rgb(50.980395%,60.784316%,35.294119%);fill-opacity:1;" d="M 66.355469 118.074219 C 64.179688 117.53125 62.746094 116.605469 61.359375 114.851562 C 60.976562 114.371094 60.667969 113.925781 60.667969 113.867188 C 60.667969 113.605469 61.429688 113.316406 62.667969 113.113281 C 64.417969 112.824219 66.105469 113 67.398438 113.609375 C 68.964844 114.34375 70.789062 116.546875 70.683594 117.570312 C 70.648438 117.910156 70.546875 118.019531 70.144531 118.15625 C 69.402344 118.414062 67.539062 118.371094 66.355469 118.074219 Z M 66.355469 118.074219 "/>
<path style=" stroke:none;fill-rule:nonzero;fill:rgb(34.117648%,41.568628%,29.803923%);fill-opacity:1;" d="M 77.0625 121.339844 C 77.058594 121.078125 77.058594 118.074219 77.0625 114.660156 C 77.066406 111.25 77.007812 107.832031 76.929688 107.070312 C 76.628906 104.117188 76.597656 101.113281 76.851562 99.199219 C 77.75 92.441406 79.742188 89.945312 84.710938 89.371094 C 86.855469 89.121094 87.695312 89.167969 88.492188 89.574219 C 89.222656 89.949219 89.800781 90.699219 89.800781 91.269531 C 89.800781 92.644531 87.847656 93.992188 87.210938 93.050781 C 86.917969 92.617188 85.511719 91.523438 84.777344 91.15625 C 84.191406 90.863281 84.0625 90.851562 83.210938 91.003906 C 81.785156 91.261719 80.828125 91.691406 80.132812 92.390625 C 79.574219 92.949219 79.441406 93.222656 78.933594 94.828125 C 77.738281 98.617188 77.765625 98.304688 77.703125 110.613281 C 77.675781 116.617188 77.613281 121.59375 77.566406 121.671875 C 77.371094 122 77.074219 121.800781 77.0625 121.339844 Z M 77.0625 121.339844 "/>
<path style=" stroke:none;fill-rule:nonzero;fill:rgb(34.117648%,41.568628%,29.803923%);fill-opacity:1;" d="M 85.558594 59.234375 C 85.558594 58.835938 86.917969 56.242188 88.101562 54.382812 C 89.613281 52.015625 91.332031 49.792969 92.988281 48.082031 C 93.726562 47.320312 94.328125 46.667969 94.328125 46.628906 C 94.328125 46.464844 95.300781 45 95.808594 44.40625 C 96.597656 43.480469 97.0625 43.488281 98.011719 44.449219 C 98.421875 44.863281 98.773438 45.375 98.875 45.703125 C 99.023438 46.199219 99.011719 46.300781 98.757812 46.636719 C 98.425781 47.078125 96.34375 47.800781 95.328125 47.832031 C 94.710938 47.847656 94.675781 47.878906 93.277344 49.449219 C 90.886719 52.125 88.699219 55.039062 87.203125 57.523438 C 86.382812 58.886719 85.9375 59.457031 85.695312 59.457031 C 85.621094 59.457031 85.558594 59.359375 85.558594 59.234375 Z M 85.558594 59.234375 "/>
<path style=" stroke:none;fill-rule:nonzero;fill:rgb(34.117648%,41.568628%,29.803923%);fill-opacity:1;" d="M 61.1875 59.027344 C 59.726562 57.429688 58.914062 55.863281 57.128906 51.171875 C 55.292969 46.34375 54.304688 44.5 52.351562 42.238281 C 51.886719 41.703125 51.566406 41.46875 51.140625 41.355469 C 50.429688 41.167969 49.015625 40.476562 48.40625 40.023438 C 47.234375 39.144531 47.3125 37.507812 48.570312 36.5625 C 50.117188 35.40625 51.761719 36.527344 52.460938 39.21875 C 52.617188 39.820312 52.710938 40.414062 52.671875 40.539062 C 52.625 40.683594 52.902344 41.140625 53.425781 41.769531 C 55.21875 43.929688 56.617188 46.671875 57.921875 50.566406 C 59.128906 54.175781 59.988281 56.117188 61.390625 58.417969 C 61.769531 59.035156 62.078125 59.582031 62.078125 59.632812 C 62.078125 59.871094 61.761719 59.65625 61.1875 59.027344 Z M 61.1875 59.027344 "/>
<path style=" stroke:none;fill-rule:nonzero;fill:rgb(34.117648%,41.568628%,29.803923%);fill-opacity:1;" d="M 71.75 120.925781 C 72.253906 117.148438 72.132812 113.125 71.417969 109.980469 C 70.140625 104.335938 69.617188 102.859375 68.210938 100.910156 C 67.511719 99.9375 66.363281 99.179688 64.765625 98.628906 C 63.976562 98.355469 63.578125 98.3125 61.9375 98.320312 C 59.824219 98.328125 57.988281 98.636719 55.835938 99.34375 C 53.246094 100.195312 49.683594 102.234375 49.480469 102.988281 C 49.421875 103.195312 49.15625 103.632812 48.882812 103.960938 C 48.613281 104.289062 48.109375 105.027344 47.769531 105.597656 C 47.050781 106.804688 46.625 107.089844 45.914062 106.859375 C 45.308594 106.664062 44.117188 105.695312 43.765625 105.113281 C 43.5 104.667969 43.496094 104.628906 43.730469 104.152344 C 44.046875 103.5 44.589844 103.183594 46.308594 102.664062 C 47.085938 102.425781 47.921875 102.117188 48.164062 101.96875 C 48.40625 101.824219 48.6875 101.707031 48.785156 101.707031 C 48.886719 101.707031 49.230469 101.5 49.546875 101.242188 C 54.300781 97.457031 61.328125 96.0625 66 97.972656 C 67.210938 98.46875 69.027344 99.738281 69.671875 100.535156 C 70.398438 101.441406 71.09375 102.820312 71.46875 104.09375 C 72.382812 107.203125 73.097656 113.449219 72.910156 116.667969 C 72.804688 118.464844 72.476562 121.222656 72.339844 121.441406 C 72.289062 121.519531 72.117188 121.589844 71.953125 121.589844 C 71.6875 121.589844 71.667969 121.53125 71.75 120.925781 Z M 71.75 120.925781 "/>
<path style=" stroke:none;fill-rule:nonzero;fill:rgb(34.117648%,41.568628%,29.803923%);fill-opacity:1;" d="M 75.179688 120.445312 C 75.464844 117.191406 75.207031 113.519531 74.453125 110.050781 C 74.265625 109.203125 74.257812 109.191406 74.316406 109.84375 C 74.722656 114.542969 74.746094 118.855469 74.371094 120.875 L 74.210938 121.757812 L 73.777344 121.675781 C 73.539062 121.628906 73.328125 121.570312 73.304688 121.550781 C 73.285156 121.527344 73.34375 120.386719 73.441406 119.015625 C 73.566406 117.21875 73.582031 114.898438 73.503906 110.746094 C 73.398438 105.132812 73.382812 104.945312 73.03125 103.734375 C 72.546875 102.074219 71.8125 100.3125 71.242188 99.4375 C 70.570312 98.402344 67.664062 94.84375 66.152344 93.214844 C 64.722656 91.667969 61.921875 89.296875 60.171875 88.152344 C 58.15625 86.835938 55.875 85.753906 53.433594 84.960938 C 50.277344 83.9375 48.75 83.644531 46.097656 83.542969 C 43.992188 83.460938 43.847656 83.472656 42.5625 83.839844 C 40.039062 84.558594 39.585938 84.382812 39.597656 82.675781 C 39.605469 82.09375 39.683594 81.402344 39.777344 81.132812 C 39.921875 80.714844 40.03125 80.628906 40.5625 80.519531 C 41.242188 80.378906 42.085938 80.539062 43.410156 81.066406 C 43.839844 81.234375 44.761719 81.5625 45.460938 81.792969 C 46.160156 82.023438 46.925781 82.277344 47.160156 82.359375 C 47.390625 82.4375 48.347656 82.632812 49.28125 82.789062 C 51.359375 83.136719 54.398438 84.03125 55.957031 84.746094 C 57.246094 85.339844 60.304688 87.070312 61.9375 88.132812 C 66.039062 90.796875 69.863281 94.960938 71.917969 99 C 73 101.125 73 101.046875 71.886719 96.703125 C 70.703125 92.085938 70.191406 90.425781 69.199219 87.972656 C 68.695312 86.722656 68.316406 85.613281 68.359375 85.503906 C 68.671875 84.703125 69.773438 86.378906 70.75 89.136719 C 71.734375 91.917969 72.878906 96.816406 73.453125 100.691406 C 73.644531 101.976562 73.898438 103.28125 74.015625 103.585938 C 74.230469 104.128906 74.234375 104.101562 74.175781 102.542969 C 74.140625 101.664062 74.054688 98.972656 73.984375 96.566406 C 73.894531 93.648438 73.753906 91.441406 73.558594 89.960938 C 73.398438 88.738281 73.222656 87.285156 73.171875 86.734375 C 73.097656 85.933594 73.023438 85.710938 72.816406 85.648438 C 72.425781 85.523438 70.820312 83.757812 70.460938 83.050781 C 69.988281 82.121094 70.027344 81.269531 70.574219 80.660156 C 71.195312 79.964844 72.148438 79.679688 73.902344 79.675781 C 75.21875 79.671875 75.367188 79.703125 75.90625 80.050781 C 76.480469 80.421875 77.214844 81.570312 77.214844 82.082031 C 77.214844 82.320312 75.179688 84.902344 74.640625 85.34375 C 74.351562 85.585938 74.34375 85.660156 74.433594 87.984375 C 74.480469 89.300781 74.613281 92.191406 74.726562 94.410156 C 74.839844 96.628906 74.976562 99.535156 75.03125 100.875 C 75.195312 104.832031 75.308594 105.039062 75.417969 101.570312 C 75.523438 98.234375 75.753906 96.449219 76.191406 95.621094 C 76.339844 95.335938 76.640625 94.574219 76.859375 93.925781 C 77.347656 92.476562 78.484375 89.839844 79.003906 88.949219 C 82.644531 82.738281 89.03125 77.367188 96.148438 74.542969 C 98.4375 73.632812 101.121094 72.8125 102.601562 72.570312 C 103.304688 72.457031 104.003906 72.304688 104.160156 72.230469 C 105.074219 71.800781 107.546875 71.144531 108.546875 71.070312 C 110.023438 70.957031 110.378906 71.148438 110.277344 72.015625 C 110.1875 72.789062 109.207031 74.714844 108.722656 75.0625 L 108.339844 75.34375 L 107.027344 74.902344 C 106.304688 74.660156 105.386719 74.394531 104.988281 74.3125 C 104.5625 74.226562 104.136719 74.03125 103.957031 73.84375 C 103.652344 73.523438 103.640625 73.523438 102.558594 73.722656 C 98.242188 74.523438 91.109375 77.792969 86.863281 80.921875 C 83.605469 83.320312 81.460938 85.886719 79.546875 89.683594 C 78.011719 92.726562 77.234375 94.847656 76.867188 96.984375 C 76.675781 98.109375 76.5 102.976562 76.375 110.539062 C 76.273438 116.621094 76.1875 118.925781 76.023438 119.921875 C 75.710938 121.824219 75.695312 121.871094 75.355469 121.871094 C 75.0625 121.871094 75.058594 121.839844 75.179688 120.445312 Z M 75.179688 120.445312 "/>
<path style=" stroke:none;fill-rule:nonzero;fill:rgb(67.058825%,73.333335%,43.137255%);fill-opacity:1;" d="M 48.453125 33.808594 C 48.402344 33.757812 48.359375 32.9375 48.359375 31.984375 C 48.359375 29.859375 48.144531 28.929688 47.207031 26.988281 C 46.300781 25.109375 45 23.230469 43.476562 21.589844 C 40.472656 18.363281 39.542969 16.5 39.542969 13.707031 C 39.542969 11.800781 40.246094 9.601562 41.214844 8.480469 C 41.839844 7.753906 42.09375 7.894531 42.914062 9.417969 C 43.984375 11.402344 44.417969 11.945312 46.582031 14.050781 C 48.164062 15.589844 48.683594 16.191406 49.101562 16.96875 C 49.625 17.953125 51.273438 22.679688 51.675781 24.355469 C 51.976562 25.605469 51.949219 27.621094 51.613281 29.101562 C 51.070312 31.507812 49.710938 33.898438 48.886719 33.898438 C 48.699219 33.898438 48.507812 33.859375 48.453125 33.808594 Z M 48.453125 33.808594 "/>
<path style=" stroke:none;fill-rule:nonzero;fill:rgb(67.058825%,73.333335%,43.137255%);fill-opacity:1;" d="M 49.953125 35.316406 C 50.089844 35.164062 50.199219 34.964844 50.199219 34.867188 C 50.199219 34.769531 50.324219 34.523438 50.472656 34.316406 C 50.976562 33.625 51.726562 32.03125 51.945312 31.191406 C 52.066406 30.734375 52.226562 29.351562 52.308594 28.117188 C 52.472656 25.65625 52.65625 24.925781 53.585938 23.117188 C 53.882812 22.539062 54.363281 21.519531 54.652344 20.855469 C 55.210938 19.582031 56.027344 18.535156 56.738281 18.175781 C 57.460938 17.808594 58.859375 17.894531 60.429688 18.402344 C 61.183594 18.648438 62.089844 19.027344 62.445312 19.25 C 63.015625 19.601562 63.082031 19.699219 63.042969 20.085938 C 63.007812 20.449219 62.851562 20.625 62.152344 21.089844 C 61.085938 21.800781 60.480469 22.746094 60.164062 24.191406 C 59.488281 27.304688 59.300781 27.652344 57.875 28.484375 C 56.457031 29.304688 55.859375 29.988281 54.867188 31.917969 C 54.304688 33.015625 53.839844 33.738281 53.550781 33.964844 C 53.089844 34.324219 50.859375 35.3125 50.117188 35.492188 C 49.714844 35.585938 49.710938 35.582031 49.953125 35.316406 Z M 49.953125 35.316406 "/>
<path style=" stroke:none;fill-rule:nonzero;fill:rgb(67.058825%,73.333335%,43.137255%);fill-opacity:1;" d="M 46.554688 35.339844 C 46.382812 35.222656 46.070312 34.832031 45.863281 34.472656 C 44.941406 32.90625 43.738281 31.351562 42.664062 30.34375 C 40.644531 28.453125 38.796875 27.761719 34.640625 27.332031 C 28.746094 26.722656 27.636719 26.382812 25.863281 24.640625 C 24.234375 23.042969 23.816406 21.785156 23.589844 17.78125 C 23.332031 13.214844 23.34375 12.609375 23.71875 12.019531 C 24.097656 11.421875 24.71875 11.15625 25.253906 11.355469 C 25.457031 11.429688 26.105469 11.902344 26.699219 12.40625 C 28.046875 13.546875 28.941406 13.953125 31.675781 14.664062 C 36.121094 15.824219 37.175781 16.5 40.355469 20.234375 C 41.113281 21.128906 42.289062 22.355469 42.964844 22.960938 C 45.089844 24.871094 45.972656 26.222656 46.878906 28.945312 C 47.679688 31.363281 47.890625 34.640625 47.28125 35.296875 C 46.992188 35.605469 46.953125 35.609375 46.554688 35.339844 Z M 46.554688 35.339844 "/>
<path style=" stroke:none;fill-rule:nonzero;fill:rgb(67.058825%,73.333335%,43.137255%);fill-opacity:1;" d="M 28.464844 37.921875 C 27.453125 37.554688 26.6875 37.007812 25.066406 35.511719 C 23.53125 34.09375 22.996094 33.710938 21.148438 32.707031 C 19.171875 31.636719 18.324219 30.675781 17.859375 28.984375 C 17.59375 28.003906 17.609375 26.152344 17.886719 25.761719 C 18.300781 25.1875 18.683594 25.367188 20.09375 26.78125 C 23.132812 29.832031 24.589844 30.332031 28.128906 29.535156 C 30.414062 29.023438 32.265625 28.867188 34.921875 28.960938 C 38.730469 29.097656 40.1875 29.574219 42.089844 31.3125 C 43.199219 32.324219 45.289062 34.925781 46.082031 36.285156 C 46.914062 37.710938 46.6875 38.390625 45.492188 38.078125 C 44.128906 37.722656 43.199219 37.285156 42.136719 36.503906 C 41.527344 36.054688 40.800781 35.59375 40.523438 35.480469 C 39.429688 35.03125 38.097656 35.3125 35.21875 36.585938 C 32.578125 37.75 31.597656 38.0625 30.328125 38.128906 C 29.445312 38.175781 29.035156 38.128906 28.464844 37.921875 Z M 28.464844 37.921875 "/>
<path style=" stroke:none;fill-rule:nonzero;fill:rgb(67.058825%,73.333335%,43.137255%);fill-opacity:1;" d="M 97.164062 42.195312 C 97.003906 41.902344 96.765625 39.820312 96.746094 38.539062 C 96.726562 37.1875 95.769531 33.363281 95.152344 32.179688 C 94.773438 31.449219 93.8125 30.460938 93.179688 30.144531 C 92.886719 30 91.945312 29.695312 91.082031 29.464844 C 90.21875 29.234375 88.785156 28.769531 87.898438 28.429688 C 87.015625 28.09375 85.859375 27.742188 85.332031 27.652344 C 82.867188 27.230469 80.027344 28.011719 77.71875 29.742188 C 77.023438 30.265625 76.679688 30.4375 76.394531 30.40625 C 76.054688 30.367188 76.007812 30.296875 75.96875 29.789062 C 75.933594 29.316406 76.066406 28.949219 76.722656 27.714844 C 77.777344 25.71875 78.214844 25.199219 79.960938 23.875 C 80.773438 23.257812 81.933594 22.332031 82.535156 21.816406 C 84.28125 20.324219 85.808594 19.730469 88.328125 19.554688 C 90.640625 19.398438 93.714844 19.957031 95.582031 20.878906 C 97.484375 21.816406 98.390625 22.859375 99.855469 25.796875 C 101.210938 28.519531 101.339844 29.582031 100.828125 33.792969 C 100.394531 37.367188 99.640625 39.757812 98.300781 41.804688 C 97.835938 42.515625 97.417969 42.660156 97.164062 42.195312 Z M 97.164062 42.195312 "/>
<path style=" stroke:none;fill-rule:nonzero;fill:rgb(67.058825%,73.333335%,43.137255%);fill-opacity:1;" d="M 98.855469 42.859375 C 98.855469 42.695312 99.132812 42.246094 99.472656 41.855469 C 102.378906 38.523438 103.464844 33.300781 102.257812 28.425781 C 101.933594 27.105469 101.335938 25.660156 100.476562 24.105469 C 98.683594 20.867188 97.898438 18.546875 97.773438 16.117188 C 97.632812 13.445312 98.101562 12.207031 100.710938 8.363281 C 102.296875 6.027344 103.394531 4.707031 103.75 4.707031 C 104.09375 4.707031 104.214844 5.164062 104.0625 5.871094 C 103.8125 7.011719 104.097656 7.945312 105.5625 10.792969 C 107.113281 13.796875 107.429688 14.65625 108.121094 17.707031 C 108.402344 18.960938 108.882812 20.953125 109.183594 22.132812 C 109.96875 25.203125 110.074219 25.875 110.066406 27.734375 C 110.058594 30.246094 109.242188 34.15625 108.328125 36.082031 C 107.53125 37.75 105.820312 39.480469 103.082031 41.394531 C 101.882812 42.230469 99.910156 43.15625 99.324219 43.15625 C 98.9375 43.15625 98.855469 43.101562 98.855469 42.859375 Z M 98.855469 42.859375 "/>
<path style=" stroke:none;fill-rule:nonzero;fill:rgb(67.058825%,73.333335%,43.137255%);fill-opacity:1;" d="M 94.976562 43.476562 C 94.746094 43.449219 94.367188 43.28125 94.125 43.109375 C 93.886719 42.933594 93.367188 42.6875 92.972656 42.5625 C 92.402344 42.382812 92.042969 42.121094 91.273438 41.328125 C 90.183594 40.207031 89.398438 39.765625 88.246094 39.636719 C 87.582031 39.558594 87.246094 39.621094 85.945312 40.046875 C 84.035156 40.671875 83.046875 40.703125 81.480469 40.1875 L 80.394531 39.828125 L 79.6875 40.578125 C 78.910156 41.40625 78.679688 41.535156 78.308594 41.351562 C 77.945312 41.167969 77.996094 40.386719 78.476562 38.796875 C 78.992188 37.109375 79.625 35.566406 80.09375 34.878906 C 80.496094 34.28125 81.847656 33.359375 83.753906 32.386719 C 85.980469 31.246094 86.789062 31.164062 90.015625 31.75 C 93.480469 32.382812 93.757812 32.65625 94.859375 36.550781 C 95.800781 39.867188 96.046875 41.128906 95.996094 42.347656 C 95.949219 43.445312 95.828125 43.578125 94.976562 43.476562 Z M 94.976562 43.476562 "/>
<path style=" stroke:none;fill-rule:nonzero;fill:rgb(67.058825%,73.333335%,43.137255%);fill-opacity:1;" d="M 101.570312 44.617188 C 100.921875 44.519531 100.300781 44.363281 100.183594 44.269531 C 99.832031 43.984375 100.453125 43.507812 102.421875 42.539062 C 106.800781 40.390625 108.761719 38.753906 110.03125 36.191406 C 110.808594 34.628906 111.214844 32.933594 111.867188 28.542969 C 112.835938 22.035156 113.4375 20.277344 115.367188 18.269531 C 117.019531 16.554688 119.039062 15.480469 121.988281 14.75 C 125.40625 13.898438 128.546875 14.011719 131.894531 15.105469 C 134.15625 15.839844 134.355469 16.484375 132.621094 17.464844 C 129.898438 19.003906 129.3125 19.972656 128.699219 23.949219 C 128.078125 27.988281 127.550781 29.074219 124.738281 32.113281 C 123.40625 33.550781 122.699219 34.523438 121.785156 36.152344 C 120.605469 38.257812 119.429688 39.316406 117.324219 40.167969 C 114.503906 41.308594 113.785156 41.640625 112.257812 42.523438 C 108.820312 44.5 105.316406 45.1875 101.570312 44.617188 Z M 101.570312 44.617188 "/>
<path style=" stroke:none;fill-rule:nonzero;fill:rgb(67.058825%,73.333335%,43.137255%);fill-opacity:1;" d="M 31.046875 49.007812 C 29.441406 46.847656 28.894531 44.554688 29.566406 42.804688 C 29.957031 41.777344 31.269531 40.457031 32.503906 39.847656 C 34.128906 39.046875 34.695312 38.996094 40.3125 39.164062 C 43.066406 39.246094 45.617188 39.308594 45.984375 39.308594 C 46.523438 39.308594 46.667969 39.359375 46.738281 39.582031 C 46.851562 39.929688 46.496094 40.464844 45.914062 40.820312 C 44.660156 41.585938 43.054688 42.230469 41.75 42.484375 C 40.253906 42.777344 40.171875 42.832031 39.414062 44.035156 C 38.851562 44.925781 38.320312 45.125 36.191406 45.238281 C 34.382812 45.339844 33.828125 45.492188 33.335938 46.019531 C 32.949219 46.441406 32.546875 47.457031 32.441406 48.277344 C 32.335938 49.117188 32.058594 49.660156 31.738281 49.660156 C 31.625 49.660156 31.3125 49.367188 31.046875 49.007812 Z M 31.046875 49.007812 "/>
<path style=" stroke:none;fill-rule:nonzero;fill:rgb(67.058825%,73.333335%,43.137255%);fill-opacity:1;" d="M 126.835938 58.058594 C 126.71875 57.964844 126.324219 57.5 125.960938 57.027344 C 124.601562 55.269531 123.402344 54.621094 120.910156 54.308594 C 118.835938 54.046875 118.015625 53.761719 116.09375 52.628906 C 114.019531 51.402344 113.300781 51.109375 110.808594 50.46875 C 109.613281 50.164062 108.066406 49.648438 107.269531 49.296875 C 106.492188 48.949219 105.144531 48.425781 104.273438 48.136719 C 102.703125 47.609375 101.785156 47.109375 101.136719 46.429688 C 100.648438 45.917969 100.816406 45.589844 101.507812 45.703125 C 101.796875 45.75 102.738281 45.824219 103.59375 45.871094 C 105.597656 45.976562 106.597656 45.78125 110.417969 44.519531 C 114.277344 43.25 115.804688 42.890625 117.808594 42.785156 C 119.964844 42.675781 121.371094 42.9375 123.148438 43.789062 C 126.773438 45.519531 129.167969 49.691406 128.945312 53.867188 C 128.867188 55.304688 128.410156 57.375 128.046875 57.921875 C 127.816406 58.269531 127.191406 58.339844 126.835938 58.058594 Z M 126.835938 58.058594 "/>
<path style=" stroke:none;fill-rule:nonzero;fill:rgb(67.058825%,73.333335%,43.137255%);fill-opacity:1;" d="M 104.039062 64.503906 C 103.859375 64.328125 103.949219 63.808594 104.304688 62.949219 C 104.789062 61.785156 104.890625 60.613281 104.601562 59.511719 C 104.304688 58.371094 103.976562 57.773438 102.789062 56.175781 C 100.976562 53.75 100.269531 52.042969 100.265625 50.085938 C 100.261719 49.121094 100.195312 48.773438 99.921875 48.222656 C 99.445312 47.273438 99.542969 47.132812 100.457031 47.441406 C 101.554688 47.808594 102.46875 48.292969 104.175781 49.40625 C 107.363281 51.484375 109.417969 54.128906 110.234375 57.203125 C 110.957031 59.914062 109.84375 62.730469 107.613281 63.839844 C 106.464844 64.410156 104.347656 64.804688 104.039062 64.503906 Z M 104.039062 64.503906 "/>
<path style=" stroke:none;fill-rule:nonzero;fill:rgb(67.058825%,73.333335%,43.137255%);fill-opacity:1;" d="M 111.097656 70.242188 C 110.789062 69.8125 110.816406 69.601562 111.292969 68.667969 C 111.847656 67.589844 112.898438 66.574219 114.621094 65.464844 C 116.851562 64.03125 117.90625 62.785156 118.449219 60.949219 C 118.636719 60.308594 118.667969 59.867188 118.589844 58.902344 C 118.480469 57.515625 118.578125 57.269531 119.246094 57.269531 C 119.75 57.269531 120.605469 57.683594 121 58.121094 C 121.554688 58.730469 122.648438 60.46875 122.933594 61.1875 C 123.382812 62.328125 123.429688 64.070312 123.046875 65.304688 C 122.769531 66.195312 122.625 66.421875 121.789062 67.238281 C 120.332031 68.660156 118.910156 69.277344 116.230469 69.652344 C 115.347656 69.773438 114.03125 70.027344 113.304688 70.210938 C 111.675781 70.625 111.375 70.628906 111.097656 70.242188 Z M 111.097656 70.242188 "/>
<path style=" stroke:none;fill-rule:nonzero;fill:rgb(67.058825%,73.333335%,43.137255%);fill-opacity:1;" d="M 120.566406 75.085938 C 118.851562 74.875 117.453125 74.457031 115.546875 73.585938 C 114.386719 73.054688 113.367188 72.6875 112.816406 72.601562 C 111.222656 72.347656 110.910156 72.070312 111.816406 71.699219 C 112.167969 71.554688 112.949219 71.476562 114.324219 71.449219 C 117.382812 71.382812 118.597656 70.953125 122.230469 68.664062 C 124.496094 67.234375 126.226562 66.390625 127.921875 65.890625 C 129.101562 65.539062 129.378906 65.511719 131.738281 65.507812 C 134.125 65.503906 134.367188 65.527344 135.554688 65.886719 C 137.449219 66.457031 138.65625 67.132812 139.800781 68.261719 C 140.347656 68.796875 141.003906 69.589844 141.261719 70.019531 C 141.996094 71.230469 142.726562 72.988281 142.675781 73.410156 C 142.636719 73.738281 142.570312 73.789062 142.207031 73.773438 C 141.972656 73.765625 141.496094 73.648438 141.144531 73.519531 C 140.300781 73.203125 139.550781 73.304688 137.960938 73.949219 C 136.808594 74.417969 136.570312 74.46875 135.417969 74.464844 C 134.714844 74.460938 133.570312 74.347656 132.871094 74.210938 C 130.757812 73.792969 129.367188 73.851562 127.214844 74.453125 C 124.488281 75.214844 122.859375 75.371094 120.566406 75.085938 Z M 120.566406 75.085938 "/>
<path style=" stroke:none;fill-rule:nonzero;fill:rgb(67.058825%,73.333335%,43.137255%);fill-opacity:1;" d="M 72.914062 77.554688 C 72.734375 77.425781 72.671875 77.21875 72.695312 76.828125 C 72.832031 74.617188 72.71875 73.058594 72.292969 71.375 C 71 66.21875 69.945312 64.300781 66.925781 61.597656 C 64.308594 59.257812 61.875 56.816406 61.304688 55.960938 C 60.046875 54.078125 59.476562 52.175781 59.496094 49.9375 C 59.515625 47.417969 60.265625 45.144531 61.832031 42.855469 C 63.292969 40.71875 65.953125 38.238281 67.988281 37.109375 C 69.632812 36.199219 70.136719 36.597656 70.351562 38.984375 C 70.542969 41.085938 71.089844 41.859375 73.996094 44.160156 C 76.417969 46.074219 79.320312 48.851562 80.65625 50.527344 C 82.171875 52.429688 82.863281 54.117188 82.871094 55.914062 C 82.871094 56.347656 82.707031 57.6875 82.503906 58.886719 C 82.027344 61.71875 81.972656 64.546875 82.355469 66.234375 C 82.582031 67.230469 82.597656 67.507812 82.449219 68.242188 C 82.074219 70.132812 80.753906 71.890625 77.90625 74.308594 C 75.125 76.667969 74.65625 77.03125 73.929688 77.398438 C 73.144531 77.796875 73.230469 77.78125 72.914062 77.554688 Z M 72.914062 77.554688 "/>
<path style=" stroke:none;fill-rule:nonzero;fill:rgb(67.058825%,73.333335%,43.137255%);fill-opacity:1;" d="M 76.601562 77.785156 C 76.320312 77.511719 76.601562 77.171875 77.664062 76.492188 C 81.375 74.128906 83.417969 70.5625 84.128906 65.195312 C 84.585938 61.753906 85.027344 60.660156 86.484375 59.363281 C 88.890625 57.210938 92.75 56.019531 97.273438 56.027344 C 99.863281 56.03125 100.832031 56.316406 100.832031 57.066406 C 100.832031 57.449219 100.371094 57.933594 98.996094 59 C 96.679688 60.792969 95.417969 62.214844 93.265625 65.453125 C 92.242188 66.996094 91.785156 67.5 88.457031 70.75 C 86.433594 72.726562 84.375 74.644531 83.878906 75.011719 C 81.730469 76.601562 77.167969 78.339844 76.601562 77.785156 Z M 76.601562 77.785156 "/>
<path style=" stroke:none;fill-rule:nonzero;fill:rgb(67.058825%,73.333335%,43.137255%);fill-opacity:1;" d="M 39.257812 78.515625 C 38.984375 78.246094 38.582031 77.058594 38.570312 76.480469 C 38.566406 76.230469 38.5 75.898438 38.421875 75.746094 C 38.0625 75.050781 35.585938 71.800781 35.054688 71.332031 C 32.910156 69.433594 28.160156 68.820312 23.960938 69.890625 C 23.339844 70.050781 22.097656 70.480469 21.203125 70.84375 C 20.203125 71.253906 19.097656 71.589844 18.328125 71.722656 C 16.070312 72.105469 15.019531 72.753906 13.191406 74.886719 C 11.941406 76.351562 11.769531 76.507812 11.414062 76.507812 C 10.933594 76.507812 10.847656 75.902344 11.089844 74.203125 C 11.386719 72.109375 11.75 71.003906 12.417969 70.191406 C 13.617188 68.722656 16.75 65.753906 17.570312 65.308594 C 18.296875 64.914062 19.941406 64.289062 23.824219 62.941406 C 25.667969 62.300781 26.808594 62.191406 28.933594 62.460938 C 31.230469 62.746094 33.238281 63.238281 34.460938 63.816406 C 35.582031 64.34375 37.511719 66.128906 38.390625 67.449219 C 39.660156 69.355469 40.730469 72.71875 40.765625 74.917969 C 40.796875 76.816406 40.210938 78.722656 39.597656 78.722656 C 39.527344 78.722656 39.375 78.628906 39.257812 78.515625 Z M 39.257812 78.515625 "/>
<path style=" stroke:none;fill-rule:nonzero;fill:rgb(67.058825%,73.333335%,43.137255%);fill-opacity:1;" d="M 40.816406 78.902344 C 40.625 78.714844 40.730469 77.496094 41.007812 76.710938 C 41.480469 75.367188 41.652344 73.640625 41.460938 72.152344 C 41.25 70.539062 40.8125 69.167969 39.59375 66.347656 C 38.480469 63.761719 38.246094 63.085938 38.023438 61.796875 C 37.605469 59.382812 38.554688 56.976562 40.675781 55.078125 C 42.355469 53.574219 43.703125 53.195312 43.5 54.285156 C 43.101562 56.425781 43.257812 57.414062 44.183594 58.644531 C 45.566406 60.484375 45.742188 60.972656 46.308594 64.636719 C 46.851562 68.15625 46.8125 68.511719 45.578125 71.804688 C 44.6875 74.164062 44.164062 75.144531 43.058594 76.503906 C 42.539062 77.144531 41.960938 77.964844 41.769531 78.332031 C 41.449219 78.953125 41.089844 79.167969 40.816406 78.902344 Z M 40.816406 78.902344 "/>
<path style=" stroke:none;fill-rule:nonzero;fill:rgb(67.058825%,73.333335%,43.137255%);fill-opacity:1;" d="M 70.234375 79.132812 C 69.835938 78.792969 68.261719 76.261719 67.464844 74.683594 C 67.203125 74.167969 66.417969 73.457031 64.058594 71.605469 C 60.996094 69.199219 59.929688 68.792969 57.285156 69.035156 C 55.226562 69.222656 54.550781 68.976562 53.058594 67.484375 C 51.53125 65.957031 50.796875 64.730469 49.84375 62.121094 C 49.148438 60.214844 48.707031 59.285156 47.734375 57.695312 C 46.351562 55.425781 46.085938 53.867188 46.730469 51.710938 C 47.195312 50.144531 47.699219 50.117188 48.234375 51.632812 C 49.042969 53.917969 49.820312 54.589844 53.234375 55.949219 C 55.71875 56.9375 56.726562 57.558594 59.082031 59.535156 C 60.117188 60.402344 61.421875 61.363281 61.980469 61.671875 C 62.539062 61.976562 63.730469 62.621094 64.625 63.105469 C 65.957031 63.828125 66.496094 64.226562 67.613281 65.304688 C 68.824219 66.472656 69.050781 66.773438 69.695312 68.070312 C 70.09375 68.867188 70.589844 70.082031 70.800781 70.765625 C 71.15625 71.941406 71.175781 72.15625 71.15625 74.636719 C 71.144531 76.117188 71.207031 77.679688 71.300781 78.21875 C 71.453125 79.09375 71.445312 79.183594 71.199219 79.359375 C 70.835938 79.617188 70.785156 79.605469 70.230469 79.132812 Z M 70.234375 79.132812 "/>
<path style=" stroke:none;fill-rule:nonzero;fill:rgb(67.058825%,73.333335%,43.137255%);fill-opacity:1;" d="M 78.980469 79.839844 C 78.128906 79.765625 77.992188 79.714844 77.992188 79.488281 C 77.992188 79.292969 78.230469 79.125 78.910156 78.851562 C 79.417969 78.644531 80.515625 78.070312 81.347656 77.570312 C 83.339844 76.382812 84.414062 76.027344 85.984375 76.035156 C 86.878906 76.039062 87.390625 76.117188 87.984375 76.347656 C 89.199219 76.8125 89.1875 77.011719 87.894531 77.6875 C 87.519531 77.878906 86.859375 78.347656 86.425781 78.726562 C 85.332031 79.679688 84.707031 79.847656 82.09375 79.890625 C 80.925781 79.914062 79.527344 79.890625 78.980469 79.839844 Z M 78.980469 79.839844 "/>
<path style=" stroke:none;fill-rule:nonzero;fill:rgb(67.058825%,73.333335%,43.137255%);fill-opacity:1;" d="M 68.359375 81.578125 C 66.9375 79.34375 66.003906 78.898438 64.117188 79.550781 C 62.546875 80.09375 61.90625 79.980469 59.898438 78.789062 C 58.691406 78.078125 58.414062 78.117188 57.058594 79.199219 C 55.269531 80.625 54.320312 80.777344 51.890625 80.027344 C 50.507812 79.601562 50.179688 79.589844 49.835938 79.964844 C 48.695312 81.195312 48.007812 80.175781 48.007812 77.257812 C 48.007812 75.734375 48.039062 75.527344 48.394531 74.785156 C 49.253906 72.992188 50.472656 71.890625 52.09375 71.441406 C 53.207031 71.132812 53.964844 71.246094 55.980469 72.023438 C 57.492188 72.609375 57.742188 72.664062 59.386719 72.761719 C 61.910156 72.917969 62.992188 73.363281 65.332031 75.203125 C 67.75 77.113281 68.507812 78.101562 69.160156 80.210938 C 69.453125 81.171875 69.460938 81.253906 69.246094 81.699219 C 69.117188 81.957031 68.953125 82.164062 68.875 82.164062 C 68.796875 82.164062 68.5625 81.902344 68.359375 81.578125 Z M 68.359375 81.578125 "/>
<path style=" stroke:none;fill-rule:nonzero;fill:rgb(67.058825%,73.333335%,43.137255%);fill-opacity:1;" d="M 94.800781 85.210938 C 93.148438 84.789062 91.925781 84.074219 91.925781 83.53125 C 91.925781 83.132812 92.3125 83.035156 94.1875 82.964844 C 97.289062 82.84375 98.808594 82.089844 101.679688 79.25 C 103.402344 77.542969 104.222656 76.921875 105.746094 76.171875 C 106.660156 75.71875 106.886719 75.714844 107 76.144531 C 107.066406 76.414062 106.789062 76.945312 105.640625 78.738281 C 103.664062 81.816406 103.128906 82.53125 102.082031 83.488281 C 100.121094 85.277344 97.488281 85.902344 94.800781 85.210938 Z M 94.800781 85.210938 "/>
<path style=" stroke:none;fill-rule:nonzero;fill:rgb(67.058825%,73.333335%,43.137255%);fill-opacity:1;" d="M 9.503906 90.765625 C 9.441406 90.558594 9.394531 89.015625 9.394531 87.34375 C 9.394531 83.890625 9.535156 83.167969 10.554688 81.476562 C 11.207031 80.398438 13.574219 77.949219 15.125 76.746094 C 17.417969 74.972656 19.207031 74.238281 22.476562 73.726562 C 23.738281 73.527344 25.105469 73.191406 26.507812 72.734375 C 29.828125 71.644531 31.511719 71.652344 33.777344 72.761719 C 35.113281 73.417969 36.203125 74.402344 37.152344 75.824219 C 37.902344 76.953125 39.148438 79.59375 39.269531 80.320312 C 39.367188 80.902344 39.019531 81.421875 38.34375 81.714844 C 37.617188 82.027344 34.886719 82.019531 33.699219 81.699219 C 32.300781 81.324219 32.246094 81.34375 30.734375 82.636719 C 29.027344 84.101562 28.421875 84.398438 26.984375 84.480469 C 26.011719 84.535156 25.691406 84.484375 24.179688 84.027344 C 22.714844 83.582031 22.414062 83.53125 22.078125 83.667969 C 21.859375 83.757812 21.050781 84.453125 20.277344 85.214844 C 18.445312 87.019531 17.785156 87.347656 15.273438 87.703125 C 12.53125 88.089844 11.804688 88.519531 10.875 90.324219 C 10.5 91.050781 10.402344 91.148438 10.03125 91.148438 C 9.695312 91.148438 9.589844 91.074219 9.503906 90.765625 Z M 9.503906 90.765625 "/>
<path style=" stroke:none;fill-rule:nonzero;fill:rgb(67.058825%,73.333335%,43.137255%);fill-opacity:1;" d="M 45.917969 95.429688 C 43.917969 94.96875 42.929688 93.578125 42.636719 90.808594 C 42.261719 87.277344 42.050781 86.492188 41.199219 85.398438 C 40.792969 84.882812 40.738281 84.734375 40.882812 84.5625 C 40.988281 84.4375 41.171875 84.390625 41.347656 84.441406 C 41.511719 84.488281 41.78125 84.546875 41.957031 84.570312 C 42.433594 84.636719 43.78125 85.484375 44.445312 86.132812 C 44.828125 86.507812 45.359375 87.332031 45.929688 88.449219 C 47.136719 90.804688 47.957031 91.675781 49.738281 92.492188 C 51.21875 93.171875 51.320312 93.355469 50.609375 94.050781 C 49.992188 94.65625 49.128906 95.117188 48.152344 95.367188 C 47.226562 95.601562 46.726562 95.617188 45.917969 95.429688 Z M 45.917969 95.429688 "/>
<path style=" stroke:none;fill-rule:nonzero;fill:rgb(67.058825%,73.333335%,43.137255%);fill-opacity:1;" d="M 107.007812 99.199219 C 106.722656 98.980469 106.050781 98.382812 105.507812 97.871094 C 103.492188 95.957031 102.125 95.183594 99.390625 94.40625 C 93.21875 92.660156 89.832031 91.3125 89.96875 90.667969 C 90.015625 90.457031 91.484375 89.808594 93.59375 89.066406 C 95.011719 88.570312 96.847656 88.40625 98.019531 88.671875 C 99.171875 88.9375 100.597656 89.621094 102.46875 90.8125 C 106.996094 93.699219 108.914062 95.761719 108.933594 97.777344 C 108.949219 99.429688 108.101562 100.054688 107.007812 99.199219 Z M 107.007812 99.199219 "/>
<path style=" stroke:none;fill-rule:nonzero;fill:rgb(67.058825%,73.333335%,43.137255%);fill-opacity:1;" d="M 139.769531 100.414062 C 139.566406 100.332031 139.210938 99.808594 138.75 98.914062 C 137.761719 96.988281 136.957031 96.191406 134.097656 94.3125 C 132.109375 93 131.433594 92.460938 129.785156 90.84375 C 128.707031 89.792969 127.644531 88.839844 127.421875 88.726562 C 126.488281 88.253906 125.746094 88.214844 123.3125 88.515625 C 122.035156 88.667969 120.574219 88.796875 120.0625 88.796875 C 117.800781 88.796875 116.136719 88.160156 114.6875 86.734375 C 113.355469 85.421875 113.003906 84.613281 112.222656 81.0625 C 112.015625 80.113281 111.59375 78.726562 111.289062 77.980469 C 110.535156 76.128906 110.398438 75.484375 110.597656 74.675781 C 110.683594 74.320312 110.882812 73.898438 111.035156 73.734375 L 111.316406 73.441406 L 111.777344 73.785156 C 112.925781 74.640625 114.238281 74.976562 118.050781 75.378906 C 120.796875 75.671875 121.460938 75.804688 124.527344 76.699219 C 125.539062 76.996094 127.476562 77.386719 129.335938 77.675781 C 141.265625 79.515625 143.703125 81.792969 143.128906 90.574219 C 143.042969 91.917969 142.878906 93.667969 142.765625 94.464844 C 142.335938 97.453125 141.421875 99.917969 140.585938 100.34375 C 140.355469 100.457031 140.148438 100.550781 140.125 100.542969 C 140.101562 100.539062 139.941406 100.480469 139.769531 100.414062 Z M 139.769531 100.414062 "/>
<path style=" stroke:none;fill-rule:nonzero;fill:rgb(67.058825%,73.333335%,43.137255%);fill-opacity:1;" d="M 22.714844 100.6875 C 22.425781 100.582031 22.332031 100.464844 22.363281 100.253906 C 22.398438 100.019531 22.664062 99.878906 23.707031 99.535156 C 25.433594 98.96875 26.289062 98.363281 28.257812 96.320312 C 29.160156 95.382812 30.285156 94.328125 30.75 93.984375 C 31.21875 93.636719 32.554688 92.410156 33.722656 91.257812 C 34.886719 90.105469 36.226562 88.820312 36.695312 88.402344 C 37.210938 87.945312 37.753906 87.28125 38.054688 86.742188 C 38.863281 85.308594 39.21875 84.820312 39.46875 84.8125 C 39.597656 84.808594 39.898438 85.027344 40.140625 85.296875 C 40.542969 85.738281 40.582031 85.871094 40.582031 86.726562 C 40.582031 88.261719 40.355469 89.058594 39.386719 90.960938 C 38.882812 91.949219 38.339844 93.203125 38.179688 93.75 C 37.820312 94.972656 36.960938 96.257812 36.082031 96.886719 C 34.609375 97.9375 30.75 99.578125 28.261719 100.210938 C 25.90625 100.808594 23.609375 101.003906 22.714844 100.6875 Z M 22.714844 100.6875 "/>
<path style=" stroke:none;fill-rule:nonzero;fill:rgb(67.058825%,73.333335%,43.137255%);fill-opacity:1;" d="M 6.953125 101.167969 C 6.65625 101.035156 6.742188 100.863281 7.679688 99.738281 C 8.175781 99.140625 9.222656 97.726562 10.003906 96.597656 C 12.472656 93.015625 14.886719 90.386719 16.625 89.378906 C 18.398438 88.347656 23.203125 86.9375 26.367188 86.519531 C 28.332031 86.257812 28.8125 86.078125 30.386719 85 C 31.777344 84.046875 33.019531 83.601562 34.640625 83.484375 C 35.300781 83.4375 36.433594 83.261719 37.160156 83.097656 C 38.515625 82.789062 38.761719 82.816406 39.078125 83.300781 C 39.5 83.957031 37.972656 85.914062 36.226562 86.945312 C 34.164062 88.164062 33.394531 88.785156 32.261719 90.15625 C 30.839844 91.871094 30.398438 92.253906 28.183594 93.691406 C 27.183594 94.339844 25.761719 95.382812 25.023438 96.007812 C 21.808594 98.726562 20.019531 99.617188 16.433594 100.277344 C 14.148438 100.699219 7.34375 101.335938 6.953125 101.167969 Z M 6.953125 101.167969 "/>
<path style=" stroke:none;fill-rule:nonzero;fill:rgb(67.058825%,73.333335%,43.137255%);fill-opacity:1;" d="M 42.773438 100.253906 C 41.894531 99.375 41.128906 98.765625 40.296875 98.289062 C 38.957031 97.511719 38.769531 97.191406 39.316406 96.621094 C 40.367188 95.527344 42.53125 96.070312 43.648438 97.703125 C 44.613281 99.117188 45.019531 101.078125 44.410156 101.398438 C 44.257812 101.476562 44.117188 101.535156 44.089844 101.53125 C 44.066406 101.527344 43.472656 100.949219 42.773438 100.253906 Z M 42.773438 100.253906 "/>
<path style=" stroke:none;fill-rule:nonzero;fill:rgb(67.058825%,73.333335%,43.137255%);fill-opacity:1;" d="M 24.902344 105.828125 C 23.53125 105.367188 22.859375 104.648438 23.121094 103.925781 C 23.300781 103.417969 23.882812 103.246094 26.082031 103.0625 C 28.597656 102.847656 30.078125 102.40625 32.808594 101.058594 C 35.660156 99.652344 36.4375 99.472656 38.769531 99.695312 C 40.457031 99.855469 41.6875 100.308594 42.523438 101.078125 C 43.019531 101.535156 43.148438 102.195312 42.792969 102.484375 C 42.679688 102.574219 41.527344 102.691406 39.980469 102.765625 C 37.636719 102.878906 37.226562 102.9375 36.078125 103.3125 C 35.371094 103.542969 34.28125 103.984375 33.65625 104.292969 C 30.980469 105.609375 29.164062 106.097656 26.972656 106.089844 C 26.074219 106.085938 25.421875 106.003906 24.902344 105.828125 Z M 24.902344 105.828125 "/>
<path style=" stroke:none;fill-rule:nonzero;fill:rgb(67.058825%,73.333335%,43.137255%);fill-opacity:1;" d="M 127.070312 106.285156 C 126.011719 105.558594 124.894531 105.035156 122.515625 104.144531 C 121.332031 103.703125 120.089844 103.203125 119.757812 103.039062 C 118.175781 102.253906 116.707031 100.980469 114.957031 98.875 C 114.34375 98.136719 113.15625 96.804688 112.324219 95.914062 C 110.0625 93.511719 109.085938 92.34375 108.085938 90.855469 C 105.195312 86.546875 104.757812 83.226562 106.613281 79.652344 C 107.453125 78.027344 108.464844 76.519531 108.785156 76.421875 C 108.917969 76.378906 109.164062 76.417969 109.332031 76.503906 C 109.605469 76.648438 109.628906 76.742188 109.550781 77.402344 C 109.5 77.804688 109.527344 78.625 109.609375 79.21875 C 109.789062 80.523438 111.128906 84.503906 111.824219 85.800781 C 112.875 87.757812 114.808594 89.054688 119.628906 91.042969 C 125.539062 93.480469 128.042969 95.644531 129.074219 99.210938 C 129.367188 100.226562 129.488281 103.832031 129.269531 105.09375 C 128.96875 106.84375 128.363281 107.171875 127.070312 106.285156 Z M 127.070312 106.285156 "/>
<path style=" stroke:none;fill-rule:nonzero;fill:rgb(67.058825%,73.333335%,43.137255%);fill-opacity:1;" d="M 83.015625 111.292969 C 82.878906 111.128906 82.878906 110.847656 83.015625 109.941406 C 83.128906 109.203125 83.160156 108.152344 83.105469 107 C 82.808594 100.914062 82.804688 101.152344 83.210938 99.980469 C 83.664062 98.660156 84.492188 97.351562 85.382812 96.539062 C 86.410156 95.601562 87.589844 94.773438 87.957031 94.730469 C 88.257812 94.695312 88.292969 94.757812 88.351562 95.382812 C 88.386719 95.765625 88.335938 96.402344 88.238281 96.804688 C 88.089844 97.410156 88.101562 97.992188 88.320312 100.367188 C 88.6875 104.402344 88.4375 106.027344 87.132812 107.992188 C 86.578125 108.828125 83.726562 111.496094 83.382812 111.496094 C 83.277344 111.496094 83.109375 111.40625 83.015625 111.292969 Z M 83.015625 111.292969 "/>
<path style=" stroke:none;fill-rule:nonzero;fill:rgb(67.058825%,73.333335%,43.137255%);fill-opacity:1;" d="M 52.921875 113.488281 C 51.898438 113.21875 51.128906 112.8125 50.40625 112.160156 C 49.65625 111.484375 48.777344 110.375 48.347656 109.570312 C 47.953125 108.820312 47.617188 107.035156 47.789062 106.59375 C 47.96875 106.128906 48.667969 106.207031 49.25 106.753906 C 49.5 106.988281 50.179688 107.429688 50.765625 107.730469 C 53.496094 109.15625 55.679688 109.132812 59.015625 107.644531 C 60.378906 107.035156 60.597656 107.105469 60.589844 108.132812 C 60.585938 108.648438 60.445312 109.097656 60.046875 109.886719 C 58.621094 112.707031 55.652344 114.207031 52.921875 113.488281 Z M 52.921875 113.488281 "/>
<path style=" stroke:none;fill-rule:nonzero;fill:rgb(67.058825%,73.333335%,43.137255%);fill-opacity:1;" d="M 97.15625 112.800781 C 93.984375 110.957031 92.945312 109.902344 91.566406 107.121094 C 90.066406 104.101562 89.472656 101.640625 89.457031 98.339844 C 89.445312 96.207031 89.65625 95.121094 90.203125 94.457031 L 90.46875 94.136719 L 90.84375 94.503906 C 91.046875 94.703125 91.214844 95.011719 91.21875 95.1875 C 91.222656 95.828125 91.777344 98.0625 92.199219 99.128906 C 92.714844 100.441406 93.410156 101.476562 95.308594 103.777344 C 97.683594 106.65625 98.675781 108.402344 99.480469 111.121094 C 100.03125 112.976562 99.949219 113.828125 99.214844 113.828125 C 99.054688 113.828125 98.128906 113.367188 97.15625 112.800781 Z M 97.15625 112.800781 "/>
<path style=" stroke:none;fill-rule:nonzero;fill:rgb(67.058825%,73.333335%,43.137255%);fill-opacity:1;" d="M 117.761719 119.019531 C 116.0625 118.757812 113.933594 118.023438 112.59375 117.234375 C 111.988281 116.871094 110.855469 116.050781 110.085938 115.40625 C 106.839844 112.695312 106.179688 112.171875 104.847656 111.277344 C 100.359375 108.25 98.683594 106.828125 97.152344 104.742188 C 96.171875 103.402344 95.207031 101.515625 94.386719 99.320312 C 93.808594 97.773438 92.179688 94.503906 91.871094 94.269531 C 91.371094 93.894531 91.183594 92.914062 91.582031 92.765625 C 92.003906 92.605469 92.207031 92.679688 93.089844 93.324219 C 94.21875 94.140625 96.253906 95.085938 98.855469 95.996094 C 99.984375 96.394531 101.414062 96.980469 102.035156 97.300781 C 103.351562 97.976562 109.945312 102.320312 111.308594 103.40625 C 113.144531 104.867188 114.179688 106.367188 116.53125 110.9375 C 118.480469 114.722656 119.558594 116.394531 120.84375 117.613281 C 122.21875 118.921875 122.09375 119.242188 120.21875 119.222656 C 119.554688 119.214844 118.449219 119.121094 117.761719 119.019531 Z M 117.761719 119.019531 "/>
<path style=" stroke:none;fill-rule:nonzero;fill:rgb(67.058825%,73.333335%,43.137255%);fill-opacity:1;" d="M 24.632812 125.234375 C 24.328125 125.113281 24.433594 124.703125 25.082031 123.507812 C 25.988281 121.828125 26.152344 121.152344 26.3125 118.410156 C 26.472656 115.625 26.6875 114.546875 27.3125 113.402344 C 27.886719 112.34375 28.730469 111.621094 30.550781 110.613281 C 32.578125 109.492188 33.070312 109.066406 34.441406 107.253906 C 36.128906 105.027344 37.042969 104.496094 39.007812 104.609375 C 39.890625 104.660156 40.414062 104.800781 41.921875 105.398438 C 43.863281 106.167969 44.117188 106.304688 44.117188 106.59375 C 44.117188 106.890625 43.421875 107.601562 43.085938 107.648438 C 42.683594 107.707031 41.917969 108.816406 41.640625 109.75 C 41.523438 110.140625 41.371094 111.300781 41.300781 112.324219 C 41.152344 114.488281 40.886719 115.328125 39.921875 116.703125 C 39.578125 117.195312 38.847656 118.507812 38.300781 119.621094 C 37.429688 121.386719 37.179688 121.761719 36.359375 122.566406 C 35.25 123.648438 33.859375 124.363281 32.234375 124.6875 C 30.75 124.984375 25.035156 125.394531 24.632812 125.234375 Z M 24.632812 125.234375 "/>
<path style=" stroke:none;fill-rule:nonzero;fill:rgb(67.058825%,73.333335%,43.137255%);fill-opacity:1;" d="M 41.054688 131.542969 C 40.367188 131.132812 40.257812 130.601562 40.375 128.230469 C 40.453125 126.585938 40.425781 125.855469 40.21875 124.492188 C 39.824219 121.886719 40.097656 120.777344 41.765625 118.1875 C 42.835938 116.53125 42.914062 116.210938 42.695312 114.300781 C 42.382812 111.574219 42.710938 110.246094 44.121094 108.515625 C 44.757812 107.726562 45.089844 107.445312 45.585938 107.257812 C 46.5 106.917969 46.632812 107.007812 46.554688 107.925781 C 46.464844 108.980469 46.667969 109.460938 47.890625 111.09375 C 50.140625 114.097656 51.125 116.132812 51.019531 117.566406 C 50.929688 118.8125 50.46875 119.519531 48.507812 121.429688 C 45.992188 123.878906 45.664062 124.410156 44.398438 128.042969 C 43.582031 130.382812 43.222656 131.066406 42.574219 131.492188 C 41.992188 131.878906 41.636719 131.890625 41.054688 131.542969 Z M 41.054688 131.542969 "/>
<path style=" stroke:none;fill-rule:nonzero;fill:rgb(100%,100%,100%);fill-opacity:1;" d="M 76.011719 145.179688 C 80.046875 145.121094 83.761719 145.007812 84.269531 144.925781 C 85.976562 144.65625 86.976562 144.253906 87.65625 143.5625 C 87.996094 143.222656 88.367188 142.75 88.488281 142.519531 C 88.699219 142.105469 88.695312 142.097656 88.402344 142.097656 C 88.234375 142.101562 87.714844 142.160156 87.242188 142.226562 C 86.769531 142.296875 83.589844 142.417969 80.171875 142.496094 C 71.253906 142.695312 65.734375 142.964844 65.492188 143.207031 C 65.378906 143.324219 65.820312 144.085938 66.34375 144.671875 C 66.984375 145.394531 67.425781 145.578125 68.132812 145.417969 C 68.433594 145.347656 71.980469 145.242188 76.011719 145.179688 Z M 76.011719 145.179688 "/>
<path style=" stroke:none;fill-rule:nonzero;fill:rgb(40.392157%,35.294119%,30.19608%);fill-opacity:1;" d="M 66.914062 146.378906 C 66.234375 146.230469 65.09375 144.941406 64.363281 143.503906 C 63.238281 141.289062 62.679688 139.363281 60.632812 130.625 C 59.582031 126.132812 59.449219 125.328125 59.441406 123.515625 C 59.429688 121.6875 59.558594 121.269531 60.269531 120.851562 C 60.699219 120.597656 60.746094 120.597656 62.910156 120.832031 C 64.8125 121.042969 65.804688 121.0625 70.261719 120.988281 C 73.097656 120.9375 75.953125 120.84375 76.605469 120.773438 C 80.703125 120.332031 91.238281 120.253906 93.488281 120.644531 C 94.402344 120.804688 94.527344 120.863281 94.597656 121.152344 C 94.722656 121.652344 94.539062 125.460938 94.300781 127.335938 C 93.796875 131.320312 92.824219 134.902344 91.210938 138.742188 C 89.726562 142.273438 88.6875 143.996094 87.644531 144.667969 C 85.867188 145.8125 82.1875 146.21875 72.738281 146.3125 C 69.898438 146.339844 67.527344 146.386719 67.464844 146.421875 C 67.40625 146.453125 67.15625 146.433594 66.914062 146.378906 Z M 66.914062 146.378906 "/>
<path style=" stroke:none;fill-rule:nonzero;fill:rgb(73.333335%,60.784316%,43.137255%);fill-opacity:1;" d="M 89.691406 121.160156 C 85.605469 121.175781 79.195312 121.34375 75.75 121.570312 C 70.847656 121.894531 66.59375 121.980469 63.613281 121.820312 C 61.105469 121.6875 60.644531 121.691406 60.535156 121.851562 C 60.382812 122.078125 60.484375 123.792969 60.761719 125.574219 C 61.039062 127.375 61.039062 127.375 61.492188 126.535156 C 62.519531 124.628906 63.265625 124.625 65.359375 126.523438 C 65.925781 127.035156 66.457031 127.429688 66.542969 127.394531 C 66.628906 127.363281 66.878906 127.050781 67.097656 126.699219 C 68.390625 124.621094 68.9375 124.671875 70.605469 127.011719 C 71.046875 127.636719 71.453125 128.144531 71.507812 128.144531 C 71.5625 128.144531 71.730469 128.007812 71.878906 127.839844 C 72.03125 127.675781 72.417969 127.117188 72.742188 126.601562 C 73.4375 125.496094 73.707031 125.230469 74.304688 125.054688 C 75.265625 124.773438 76.109375 125.292969 77.433594 126.980469 L 78.160156 127.902344 L 78.742188 126.824219 C 79.316406 125.753906 79.945312 125.058594 80.332031 125.058594 C 80.777344 125.058594 81.480469 125.539062 82.117188 126.285156 C 82.488281 126.714844 82.835938 127.070312 82.890625 127.070312 C 82.945312 127.070312 83.1875 126.753906 83.429688 126.367188 C 84.1875 125.164062 84.574219 124.789062 85.058594 124.789062 C 85.621094 124.789062 86.035156 125.136719 86.664062 126.125 C 86.945312 126.570312 87.214844 126.933594 87.261719 126.933594 C 87.308594 126.933594 87.71875 126.425781 88.167969 125.804688 C 89.460938 124.023438 90.03125 123.992188 90.84375 125.667969 C 91.074219 126.144531 91.292969 126.53125 91.332031 126.527344 C 91.371094 126.523438 91.582031 126.234375 91.800781 125.890625 C 92.34375 125.027344 92.800781 124.960938 93.21875 125.6875 C 93.578125 126.300781 93.558594 126.40625 93.6875 123.492188 L 93.78125 121.324219 L 93.320312 121.246094 C 92.921875 121.179688 91.546875 121.15625 89.691406 121.160156 Z M 89.625 130.703125 C 89.5625 130.695312 89.511719 130.761719 89.40625 130.894531 C 89.289062 131.042969 88.910156 131.769531 88.566406 132.511719 C 87.597656 134.597656 87.085938 134.835938 86.34375 133.546875 C 85.664062 132.375 85.167969 131.699219 84.984375 131.699219 C 84.882812 131.699219 84.5 132.269531 84.136719 132.964844 C 83.773438 133.660156 83.382812 134.285156 83.265625 134.359375 C 82.835938 134.625 82.367188 134.324219 81.554688 133.273438 C 81.113281 132.703125 80.636719 132.179688 80.5 132.117188 C 80.105469 131.929688 79.710938 132.289062 79.011719 133.488281 C 78.660156 134.089844 78.246094 134.671875 78.089844 134.78125 C 77.453125 135.234375 76.808594 134.9375 75.585938 133.640625 C 75.222656 133.25 74.84375 132.972656 74.683594 132.972656 C 74.523438 132.972656 74.058594 133.3125 73.589844 133.769531 C 72.199219 135.125 71.695312 135.132812 70.328125 133.824219 C 69.839844 133.355469 69.351562 132.972656 69.242188 132.972656 C 69.132812 132.972656 68.902344 133.183594 68.730469 133.441406 C 68.121094 134.347656 67.664062 134.34375 66.542969 133.425781 C 66.242188 133.175781 65.90625 132.972656 65.796875 132.972656 C 65.6875 132.972656 65.386719 133.273438 65.125 133.644531 C 64.710938 134.230469 64.59375 134.316406 64.191406 134.316406 C 63.847656 134.316406 63.59375 134.195312 63.21875 133.847656 C 62.664062 133.339844 62.539062 133.355469 62.539062 133.929688 C 62.539062 134.472656 63.492188 138.191406 64.132812 140.148438 L 64.679688 141.824219 L 65.273438 141.15625 C 65.742188 140.625 66.019531 140.441406 66.597656 140.269531 C 67.421875 140.027344 68.179688 140.074219 69.804688 140.476562 C 70.925781 140.753906 70.878906 140.765625 72.113281 139.816406 C 73.4375 138.800781 74.613281 138.535156 75.980469 138.945312 C 76.613281 139.136719 77.070312 139.410156 78.550781 140.480469 L 79.171875 140.933594 L 80.074219 140.316406 C 81.363281 139.4375 81.929688 139.238281 82.921875 139.300781 C 83.644531 139.347656 83.863281 139.433594 84.6875 139.996094 L 85.632812 140.636719 L 86.445312 140.03125 C 87.644531 139.132812 88.394531 139.0625 89.21875 139.765625 C 89.445312 139.957031 89.65625 140.09375 89.683594 140.0625 C 89.941406 139.800781 91.734375 135.234375 91.734375 134.839844 C 91.734375 134.519531 90.265625 131.441406 89.882812 130.960938 C 89.75 130.792969 89.683594 130.710938 89.625 130.703125 Z M 74.785156 139.683594 C 74.054688 139.683594 73.324219 140.074219 72.445312 140.898438 C 71.726562 141.570312 71.722656 141.578125 72.144531 141.503906 C 72.375 141.464844 73.625 141.363281 74.917969 141.273438 C 76.210938 141.1875 77.316406 141.070312 77.375 141.019531 C 77.496094 140.914062 76.453125 140.199219 75.71875 139.890625 C 75.398438 139.753906 75.09375 139.683594 74.785156 139.683594 Z M 82.660156 139.984375 C 82.617188 139.984375 82.582031 139.984375 82.546875 139.992188 C 82.046875 140.074219 81.375 140.378906 80.933594 140.722656 C 80.648438 140.945312 80.722656 140.957031 82.753906 140.957031 C 84.5625 140.957031 84.832031 140.929688 84.632812 140.773438 C 84.109375 140.359375 83.148438 139.984375 82.660156 139.984375 Z M 87.976562 140.257812 C 87.671875 140.257812 87.34375 140.375 86.957031 140.613281 L 86.515625 140.886719 L 87.8125 140.886719 C 88.648438 140.886719 89.078125 140.839844 89.023438 140.753906 C 88.980469 140.679688 88.761719 140.523438 88.535156 140.40625 C 88.351562 140.308594 88.167969 140.257812 87.976562 140.257812 Z M 67.585938 141.164062 C 66.910156 141.167969 66.394531 141.355469 66.003906 141.726562 C 65.589844 142.121094 65.632812 142.273438 66.136719 142.183594 C 66.375 142.140625 67.101562 142.042969 67.753906 141.96875 C 68.410156 141.890625 69.210938 141.789062 69.539062 141.742188 L 70.132812 141.65625 L 69.207031 141.410156 C 68.585938 141.242188 68.046875 141.160156 67.585938 141.164062 Z M 67.585938 141.164062 "/>
</g>
</svg>
